<?xml version="1.0" standalone="no"?>
<!DOCTYPE svg PUBLIC "-//W3C//DTD SVG 20010904//EN"
 "http://www.w3.org/TR/2001/REC-SVG-20010904/DTD/svg10.dtd">
<svg version="1.0" xmlns="http://www.w3.org/2000/svg"
 width="296.000000pt" height="296.000000pt" viewBox="0 0 296.000000 296.000000"
 preserveAspectRatio="xMidYMid meet">
<metadata>
Created by potrace 1.11, written by Peter Selinger 2001-2013
</metadata>
<g transform="translate(0.000000,296.000000) scale(0.100000,-0.100000)"
fill="#000000" stroke="none">
<path d="M1267 2944 c-450 -70 -824 -321 -1061 -713 -229 -379 -268 -871 -104
-1291 22 -56 36 -79 45 -76 124 48 320 55 475 17 225 -54 350 -4 523 212 110
137 262 388 468 775 99 186 221 383 264 427 49 50 89 68 153 68 82 0 157 -40
255 -138 175 -173 339 -480 556 -1038 60 -155 56 -155 91 6 32 148 32 427 -1
577 -64 298 -198 547 -406 755 -330 330 -808 489 -1258 419z"/>
<path d="M1994 1767 c-210 -69 -393 -262 -618 -649 -106 -183 -232 -329 -339
-391 -136 -80 -291 -70 -410 26 -74 60 -103 71 -213 75 -95 4 -214 -14 -236
-36 -11 -11 77 -150 157 -249 165 -205 423 -384 675 -467 164 -54 271 -70 470
-70 199 0 306 16 470 70 333 110 640 362 815 670 53 93 57 133 24 263 -78 310
-298 635 -494 732 -61 30 -79 34 -164 36 -60 2 -111 -2 -137 -10z"/>
</g>
</svg>
