<?xml version="1.0" encoding="UTF-8"?>
<svg enable-background="new 0 0 86 86" version="1.1" viewBox="0 0 86 86" xml:space="preserve" xmlns="http://www.w3.org/2000/svg">

	<g fill="#ffffff">
		<path d="M13.9,72.9V60.2h8.4v2.2h-5.7v2.9h5.1v2.2h-5.1v5.3H13.9z"/>
		<path d="m28.7 72.9h-2.7v-12.7h4.9c0.6 0 1.2 0.1 1.7 0.3s0.9 0.5 1.2 0.8c0.3 0.4 0.6 0.8 0.8 1.3s0.3 1.1 0.3 1.7c0 0.9-0.2 1.7-0.6 2.3s-0.9 1.1-1.7 1.3l2.5 5.1h-3l-2.1-4.7h-1.3v4.6zm1.5-6.8c0.6 0 1.1-0.1 1.3-0.4 0.2-0.2 0.4-0.6 0.4-1.2v-0.5c0-0.6-0.1-1-0.4-1.2-0.2-0.2-0.7-0.4-1.3-0.4h-1.6v3.7h1.6z"/>
		<path d="m45.8 72.9-0.8-3.1h-3.5l-0.8 3.1h-2.7l3.4-12.7h3.9l3.4 12.7h-2.9zm-2.5-10.1h-0.1l-1.2 4.8h2.6l-1.3-4.8z"/>
		<path d="M54.2,64.5H54v8.4h-2.3V60.2H55l2.9,8.4h0.2v-8.4h2.3v12.7h-3.3L54.2,64.5z"/>
		<path d="M70.4,62.4v10.5h-2.7V62.4H64v-2.2h10v2.2H70.4z"/>
		<path d="m81.3 73.1c-1.1 0-2-0.2-2.8-0.5s-1.4-0.8-1.9-1.4l1.6-1.7c0.5 0.5 1 0.9 1.5 1.1 0.6 0.2 1.1 0.4 1.7 0.4 0.7 0 1.2-0.1 1.5-0.4s0.5-0.7 0.5-1.3c0-0.5-0.1-0.8-0.4-1s-0.7-0.4-1.3-0.5l-1.3-0.2c-1.1-0.2-2-0.6-2.5-1.3-0.5-0.6-0.8-1.4-0.8-2.4 0-1.2 0.4-2.2 1.2-2.8 0.8-0.7 1.9-1 3.4-1 1 0 1.8 0.2 2.6 0.5 0.7 0.3 1.3 0.7 1.8 1.2l-1.5 1.7c-0.3-0.4-0.7-0.7-1.2-0.9s-1-0.3-1.6-0.3c-1.2 0-1.8 0.5-1.8 1.5 0 0.4 0.1 0.8 0.4 1s0.7 0.4 1.3 0.5l1.3 0.2c1 0.2 1.8 0.6 2.4 1.2s0.8 1.4 0.8 2.4c0 0.6-0.1 1.1-0.3 1.6s-0.5 0.9-0.9 1.3-0.9 0.7-1.5 0.9c-0.7 0.1-1.4 0.2-2.2 0.2z"/>


		<path d="m57 1.2c-3.6 0-7 1.4-9.5 3.9l-5.2 5.2c-0.5 0.5-1.2 0.8-1.9 0.8h-40.2v9.9h27.6c3.6 0 7-1.4 9.5-3.9l5.2-5.2c0.5-0.5 1.2-0.8 1.9-0.8h41.9v-9.9h-29.3z"/>
		<path d="m36.4 21.5-5.2 5.2c-0.5 0.5-1.2 0.8-1.9 0.8h-29.1v9.9h16.6c3.6 0 7-1.4 9.5-3.9l5.2-5.2c0.5-0.5 1.2-0.8 1.9-0.8h52.6v-9.9h-40c-3.6-0.1-7.1 1.4-9.6 3.9z"/>
		<path d="m25.4 37.8-5.2 5.2c-0.5 0.5-1.2 0.8-1.9 0.8h-18.1v9.9h5.5c3.6 0 7-1.4 9.5-3.9l5.2-5.2c0.5-0.5 1.2-0.8 1.9-0.8h18.2v-9.9h-5.5c-3.7 0-7.1 1.4-9.6 3.9z"/>
		<polygon points="0.2 70.2 10.1 60.2 0.2 60.2"/>


		<path d="M2.4,80v4.3H1.8V80H0.2v-0.6H4V80H2.4z"/>
		<path d="M5.2,84.3v-4.9h3V80H5.9v1.6h2.3v0.6H5.9v1.6h2.4v0.6H5.2z"/>
		<path d="m11.4 84.4c-0.6 0-1.1-0.2-1.4-0.7-0.3-0.4-0.4-1.1-0.4-1.9s0.1-1.4 0.4-1.9c0.3-0.4 0.8-0.7 1.4-0.7 0.2 0 0.4 0 0.6 0.1s0.3 0.1 0.4 0.3c0.1 0.1 0.2 0.2 0.3 0.4 0.1 0.1 0.2 0.3 0.2 0.4l-0.6 0.2c0-0.1-0.1-0.2-0.1-0.3-0.1-0.1-0.1-0.2-0.2-0.3s-0.2-0.1-0.3-0.2c-0.1 0-0.2-0.1-0.4-0.1s-0.3 0-0.5 0.1l-0.3 0.3c-0.1 0.1-0.2 0.3-0.2 0.5s-0.1 0.4-0.1 0.6v0.8c0 0.2 0 0.4 0.1 0.6 0 0.2 0.1 0.4 0.2 0.5l0.3 0.3c0.1 0.1 0.3 0.1 0.5 0.1 0.1 0 0.3 0 0.4-0.1 0.1 0 0.2-0.1 0.3-0.2s0.1-0.2 0.2-0.3 0.1-0.2 0.1-0.3l0.6 0.2c-0.1 0.2-0.1 0.3-0.2 0.4s-0.2 0.3-0.3 0.4-0.3 0.2-0.4 0.3c-0.2 0.4-0.4 0.5-0.6 0.5z"/>
		<path d="m16.7 82.1h-1.8v2.2h-0.7v-4.9h0.7v2.1h1.8v-2.1h0.7v4.9h-0.7v-2.2z"/>
		<path d="m19.5 80.3-0.1 4h-0.6v-4.9h0.9l1.6 4h0.1v-4h0.6v4.9h-1l-1.5-4z"/>
		<path d="m25 84.4c-0.3 0-0.6-0.1-0.8-0.2s-0.4-0.3-0.5-0.5-0.3-0.5-0.3-0.8c-0.1-0.3-0.1-0.7-0.1-1.1s0-0.8 0.1-1.1 0.2-0.6 0.3-0.8 0.3-0.4 0.5-0.5 0.5-0.2 0.8-0.2 0.6 0.1 0.8 0.2 0.4 0.3 0.5 0.5 0.3 0.5 0.3 0.8c0.1 0.3 0.1 0.7 0.1 1.1s0 0.8-0.1 1.1-0.2 0.6-0.3 0.8-0.3 0.4-0.5 0.5c-0.3 0.1-0.5 0.2-0.8 0.2zm0-0.6c0.2 0 0.3 0 0.5-0.1l0.3-0.3c0.1-0.1 0.1-0.3 0.2-0.5 0-0.2 0.1-0.4 0.1-0.6v-0.8c0-0.2 0-0.4-0.1-0.6 0-0.2-0.1-0.4-0.2-0.5l-0.3-0.3c-0.1-0.1-0.3-0.1-0.5-0.1s-0.3 0-0.5 0.1l-0.3 0.3c-0.1 0.1-0.1 0.3-0.2 0.5 0 0.2-0.1 0.4-0.1 0.6v0.8c0 0.2 0 0.4 0.1 0.6 0 0.2 0.1 0.4 0.2 0.5l0.3 0.3c0.1 0.1 0.3 0.1 0.5 0.1z"/>
		<path d="m28.2 84.3v-4.9h0.7v4.3h2.3v0.6h-3z"/>
		<path d="m34.1 84.4c-0.3 0-0.6-0.1-0.8-0.2s-0.4-0.3-0.5-0.5-0.3-0.5-0.3-0.8c-0.1-0.3-0.1-0.7-0.1-1.1s0-0.8 0.1-1.1 0.2-0.6 0.3-0.8 0.3-0.4 0.5-0.5 0.5-0.2 0.8-0.2 0.6 0.1 0.8 0.2 0.4 0.3 0.5 0.5 0.3 0.5 0.3 0.8c0.1 0.3 0.1 0.7 0.1 1.1s0 0.8-0.1 1.1-0.2 0.6-0.3 0.8-0.3 0.4-0.5 0.5-0.5 0.2-0.8 0.2zm0-0.6c0.2 0 0.3 0 0.5-0.1l0.3-0.3c0.1-0.1 0.1-0.3 0.2-0.5 0-0.2 0.1-0.4 0.1-0.6v-0.8c0-0.2 0-0.4-0.1-0.6 0-0.2-0.1-0.4-0.2-0.5l-0.3-0.3c-0.1-0.1-0.3-0.1-0.5-0.1s-0.3 0-0.5 0.1l-0.3 0.3c-0.1 0.1-0.1 0.3-0.2 0.5 0 0.2-0.1 0.4-0.1 0.6v0.8c0 0.2 0 0.4 0.1 0.6 0 0.2 0.1 0.4 0.2 0.5l0.3 0.3c0.1 0.1 0.3 0.1 0.5 0.1z"/>
		<path d="m39.6 83.6c-0.1 0.1-0.1 0.2-0.2 0.3s-0.1 0.2-0.2 0.2c-0.1 0.1-0.2 0.1-0.3 0.2-0.1 0-0.3 0.1-0.4 0.1-0.5 0-0.9-0.2-1.2-0.7-0.3-0.4-0.4-1.1-0.4-1.9s0.1-1.5 0.4-1.9 0.7-0.7 1.3-0.7c0.2 0 0.4 0 0.6 0.1s0.3 0.1 0.4 0.3c0.1 0.1 0.2 0.2 0.3 0.4 0.1 0.1 0.1 0.3 0.2 0.4l-0.6 0.2c0-0.1-0.1-0.2-0.1-0.3s-0.1-0.2-0.2-0.3-0.2-0.1-0.3-0.2c-0.1 0-0.2-0.1-0.4-0.1s-0.3 0-0.5 0.1l-0.3 0.3c-0.1 0.1-0.2 0.3-0.2 0.5s-0.1 0.4-0.1 0.6v0.8c0 0.2 0 0.5 0.1 0.7 0 0.2 0.1 0.4 0.2 0.5l0.3 0.3c0.1 0.1 0.3 0.1 0.5 0.1 0.3 0 0.5-0.1 0.7-0.3s0.2-0.4 0.2-0.7v-0.5h-1v-0.5h1.6v2.5h-0.6v-0.5z"/>
		<path d="m42.9 84.3v-1.9l-1.7-3h0.8l0.7 1.3 0.6 1.1 0.6-1.1 0.7-1.3h0.7l-1.7 3v1.9h-0.7z"/>
		<path d="m51.8 84.4c-0.2 0-0.4 0-0.6-0.1s-0.3-0.2-0.4-0.3-0.2-0.3-0.3-0.4c-0.1-0.2-0.1-0.3-0.1-0.5v-0.4c0-0.1 0.1-0.3 0.1-0.4 0.1-0.1 0.2-0.2 0.3-0.4 0.1-0.1 0.3-0.2 0.4-0.3-0.1-0.2-0.2-0.4-0.3-0.5-0.1-0.2-0.1-0.4-0.1-0.6s0-0.3 0.1-0.5c0.1-0.1 0.2-0.3 0.3-0.4s0.3-0.2 0.4-0.2c0.2-0.1 0.3-0.1 0.5-0.1s0.3 0 0.4 0.1c0.1 0 0.3 0.1 0.4 0.2s0.2 0.2 0.3 0.2c0.1 0.1 0.1 0.2 0.2 0.3l-0.5 0.3c-0.1-0.1-0.1-0.3-0.3-0.4-0.1-0.1-0.3-0.1-0.4-0.1-0.2 0-0.4 0.1-0.5 0.2s-0.2 0.3-0.2 0.5v0.2c0 0.1 0 0.1 0.1 0.2 0 0.1 0.1 0.2 0.2 0.3s0.1 0.2 0.2 0.3l0.6 0.7 0.5 0.6c0-0.2 0-0.4 0.1-0.6v-0.7h1v0.5h-0.5c0 0.2-0.1 0.4-0.1 0.6s-0.1 0.4-0.2 0.6l0.9 1h-0.8l-0.5-0.7c-0.1 0.2-0.2 0.4-0.4 0.6-0.3 0.1-0.5 0.2-0.8 0.2zm0.1-0.6c0.2 0 0.3 0 0.5-0.1 0.1-0.1 0.3-0.2 0.3-0.3l-1.1-1.4c-0.2 0.1-0.3 0.3-0.4 0.4-0.1 0.2-0.1 0.3-0.1 0.5v0.1c0 0.2 0.1 0.4 0.2 0.6 0.2 0.1 0.4 0.2 0.6 0.2z"/>
		<path d="m60 79.4h1.4c0.6 0 1.1 0.2 1.4 0.6s0.4 1 0.4 1.8-0.1 1.4-0.4 1.8-0.8 0.6-1.4 0.6h-1.4v-4.8zm1.4 4.3c0.4 0 0.7-0.1 0.8-0.4 0.2-0.3 0.3-0.6 0.3-1.1v-0.8c0-0.5-0.1-0.8-0.3-1.1s-0.5-0.4-0.8-0.4h-0.7v3.8h0.7z"/>
		<path d="m64.6 84.3v-4.9h3v0.6h-2.4v1.6h2.3v0.6h-2.3v1.6h2.4v0.6h-3z"/>
		<path d="m70.6 84.4c-0.4 0-0.8-0.1-1.1-0.2-0.3-0.2-0.5-0.4-0.7-0.6l0.5-0.4c0.2 0.2 0.4 0.4 0.6 0.5s0.5 0.2 0.7 0.2c0.3 0 0.6-0.1 0.8-0.2 0.2-0.2 0.3-0.4 0.3-0.7 0-0.2-0.1-0.4-0.2-0.5s-0.4-0.2-0.7-0.3l-0.5-0.2c-0.2 0-0.4-0.1-0.6-0.2s-0.3-0.2-0.4-0.3-0.2-0.3-0.2-0.4-0.1-0.3-0.1-0.5c0-0.5 0.1-0.8 0.4-1s0.7-0.4 1.2-0.4c0.4 0 0.7 0.1 1 0.2s0.5 0.3 0.7 0.5l-0.5 0.4c-0.1-0.2-0.3-0.3-0.5-0.4s-0.4-0.2-0.7-0.2-0.6 0.1-0.7 0.2c-0.2 0.1-0.2 0.3-0.2 0.6 0 0.2 0.1 0.4 0.2 0.5s0.4 0.2 0.7 0.3l0.5 0.1c0.2 0 0.4 0.1 0.6 0.2s0.3 0.2 0.4 0.3 0.2 0.2 0.2 0.4c0 0.1 0.1 0.3 0.1 0.5 0 0.5-0.2 0.8-0.5 1.1s-0.7 0.5-1.3 0.5z"/>
		<path d="m73.7 84.3v-0.5h1.2v-3.9h-1.2v-0.5h3.1v0.5h-1.2v3.9h1.2v0.5h-3.1z"/>
		<path d="m80.8 83.6c-0.1 0.1-0.1 0.2-0.2 0.3s-0.1 0.2-0.2 0.2c-0.1 0.1-0.2 0.1-0.3 0.2-0.1 0-0.3 0.1-0.4 0.1-0.5 0-0.9-0.2-1.2-0.7-0.3-0.4-0.4-1.1-0.4-1.9s0.1-1.5 0.4-1.9 0.7-0.7 1.3-0.7c0.2 0 0.4 0 0.6 0.1s0.3 0.1 0.4 0.3c0.1 0.1 0.2 0.2 0.3 0.4 0.1 0.1 0.1 0.3 0.2 0.4l-0.6 0.2c0-0.1-0.1-0.2-0.1-0.3s-0.1-0.2-0.2-0.3-0.2-0.1-0.3-0.2c-0.1 0-0.2-0.1-0.4-0.1s-0.3 0-0.5 0.1l-0.3 0.3c-0.1 0.1-0.2 0.3-0.2 0.5s-0.1 0.4-0.1 0.6v0.8c0 0.2 0 0.5 0.1 0.7 0 0.2 0.1 0.4 0.2 0.5l0.3 0.3c0.1 0.1 0.3 0.1 0.5 0.1 0.3 0 0.5-0.1 0.7-0.3s0.2-0.4 0.2-0.7v-0.5h-1v-0.5h1.6v2.5h-0.6v-0.5z"/>
		<path d="m83.5 80.3-0.1 4h-0.6v-4.9h0.9l1.6 4h0.1v-4h0.6v4.9h-1l-1.5-4z"/>
	</g>

	

</svg>
