<?xml version="1.0" encoding="utf-8"?>
<!-- Generator: Adobe Illustrator 19.2.1, SVG Export Plug-In . SVG Version: 6.00 Build 0)  -->
<svg version="1.1" id="Слой_1" xmlns="http://www.w3.org/2000/svg" xmlns:xlink="http://www.w3.org/1999/xlink" x="0px" y="0px"
	 viewBox="0 0 86 86" style="enable-background:new 0 0 86 86;" xml:space="preserve">

	<g fill="#ffffff">
		<path d="M57,1.2c-3.6,0-7,1.4-9.5,3.9l-5.2,5.2c-0.5,0.5-1.2,0.8-1.9,0.8h-7.1H0.2V21h27.6c3.6,0,7-1.4,9.5-3.9l5.2-5.2
			c0.5-0.5,1.2-0.8,1.9-0.8h7.1h34.8V1.2H57z"/>
		<path d="M36.4,21.5l-5.2,5.2c-0.5,0.5-1.2,0.8-1.9,0.8h-7.1H0.2v9.9h16.6c3.6,0,7-1.4,9.5-3.9l5.2-5.2c0.5-0.5,1.2-0.8,1.9-0.8
			h7.1H86v-9.9h-40C42.4,17.5,38.9,19,36.4,21.5z"/>
		<path d="M25.4,37.8l-5.2,5.2c-0.5,0.5-1.2,0.8-1.9,0.8h-7.1H0.2v9.9h5.5c3.6,0,7-1.4,9.5-3.9l5.2-5.2c0.5-0.5,1.2-0.8,1.9-0.8h7.1
			h11.1v-9.9h-5.5C31.3,33.9,27.9,35.3,25.4,37.8z"/>
		<polygon points="0.2,70.2 10.1,60.2 0.2,60.2 		"/>
	</g>	

</svg>
